<?xml version="1.0" standalone="no"?>
<!DOCTYPE svg PUBLIC "-//W3C//DTD SVG 20010904//EN"
 "http://www.w3.org/TR/2001/REC-SVG-20010904/DTD/svg10.dtd">
<svg version="1.0" xmlns="http://www.w3.org/2000/svg"
 width="476.000000pt" height="476.000000pt" viewBox="0 0 476.000000 476.000000"
 preserveAspectRatio="xMidYMid meet">
<metadata>
Created by potrace 1.11, written by Peter Selinger 2001-2013
</metadata>
<g transform="translate(0.000000,476.000000) scale(0.100000,-0.100000)"
fill="#000000" stroke="none">
<path d="M2083 4600 l0 -151 150 3 150 3 1 147 1 148 -151 0 -152 0 1 -150z"/>
<path d="M1835 4450 l-49 -5 1 -142 2 -143 -37 -1 c-20 -1 -88 -1 -149 -1
l-113 1 0 -150 0 -149 -148 0 -147 0 1 -732 c1 -403 2 -738 3 -743 1 -7 49
-10 134 -10 72 1 138 0 145 -3 9 -3 12 -42 12 -148 l0 -144 28 -1 c15 0 82 -1
150 -2 l122 0 -1 -121 c0 -67 0 -133 0 -147 l1 -26 593 1 592 1 0 145 0 145
145 0 145 0 5 150 5 150 135 1 c74 1 140 2 146 3 17 2 17 880 0 882 -6 1 -67
3 -136 4 -69 1 -131 3 -137 4 -10 1 -13 67 -13 296 l0 294 -147 3 -148 3 0
145 0 145 -150 0 -150 0 0 -147 -1 -148 36 -1 c19 -1 86 -1 148 -1 l112 0 1
-64 c0 -35 0 -95 0 -134 0 -38 0 -76 0 -84 -1 -11 -28 -13 -137 -12 -75 0
-141 -2 -147 -6 -8 -5 -12 -52 -13 -140 -1 -73 -2 -138 -3 -143 -1 -6 -54 -10
-143 -10 l-143 0 -1 142 c0 79 -4 146 -7 149 -4 4 -71 7 -149 7 l-143 0 0 441
0 441 -100 5 c-55 3 -122 3 -150 0z"/>
<path d="M385 1779 c-79 -11 -168 -56 -233 -117 -28 -27 -52 -52 -52 -56 0 -3
-11 -24 -24 -45 -49 -76 -73 -244 -47 -314 6 -15 9 -27 6 -27 -8 0 28 -76 57
-118 62 -90 135 -147 239 -186 l58 -22 -47 -13 c-121 -35 -227 -118 -279 -219
-163 -311 61 -672 408 -656 41 1 83 5 94 8 20 6 261 62 300 71 11 2 29 6 40 9
11 3 72 17 135 31 63 14 123 28 133 31 9 2 27 6 40 9 12 3 49 11 82 19 63 15
236 55 570 132 110 25 238 55 285 66 47 11 98 22 114 25 16 2 40 9 53 14 37
14 86 11 176 -11 142 -33 220 -52 236 -55 9 -2 48 -11 86 -20 39 -9 81 -19 95
-21 14 -3 72 -16 130 -30 107 -25 144 -33 170 -39 8 -2 47 -11 85 -20 39 -9
78 -19 88 -21 9 -2 25 -6 35 -8 89 -21 550 -128 562 -131 8 -2 67 -15 130 -30
126 -29 228 -38 293 -24 107 24 223 105 282 199 61 96 84 243 55 351 -41 152
-172 282 -325 320 l-48 12 53 14 c162 41 294 182 326 347 10 48 6 151 -6 198
-44 164 -196 300 -363 326 -92 14 -34 25 -837 -159 -168 -39 -314 -72 -325
-75 -11 -2 -154 -35 -317 -74 -164 -38 -308 -72 -320 -74 -13 -3 -62 -14 -110
-24 -93 -21 -95 -21 -278 23 -39 9 -198 46 -320 74 -74 17 -193 44 -265 61
-546 127 -1081 248 -1120 253 -22 2 -67 0 -100 -4z"/>
</g>
</svg>
